<?xml version="1.0"?>
<svg xmlns="http://www.w3.org/2000/svg" xmlns:xlink="http://www.w3.org/1999/xlink" version="1.1" id="Capa_1" x="0px" y="0px" viewBox="0 0 512 512" style="enable-background:new 0 0 512 512;" xml:space="preserve" width="350px" height="250px" class=""><g><path style="fill:#32B7D7" d="M512,151c0,49.799-34.6,58.2-61,59.7c-5.4,0.3-10.499,0.3-15,0.3s-9.6,0-15-0.3  c-26.4-1.5-60-9.901-60-59.7c0-11.4,2.401-29.7,6.899-49.2l34.2-1.5L376.6,70.899C389.2,34.3,408.999,0,436,0  s47.8,34.3,60.399,70.899L471.4,106l33.701-4.2C509.599,121.3,512,139.6,512,151z" data-original="#32D736" class="" data-old_color="#32D736"/><path style="fill:#407CA9" d="M512,151c0,49.799-34.6,58.2-61,59.7c-5.4,0.3-10.499,0.3-15,0.3V0c27.001,0,47.8,34.3,60.399,70.899  L471.4,106l33.701-4.2C509.599,121.3,512,139.6,512,151z" data-original="#10BB67" class="active-path" data-old_color="#10BB67"/><path style="fill:#B25C4A;" d="M505.101,101.8L451,144.099V271c0,8.399-6.599,15-15,15s-15-6.601-15-15V144.099L367.899,101.8  c2.401-10.201,5.4-20.7,8.701-30.901L421,108.1V45c0-8.401,6.599-15,15-15s15,6.599,15,15v63.1l45.399-37.202  C499.701,81.099,502.7,91.599,505.101,101.8z" data-original="#B25C4A"/><path style="fill:#8B4330;" d="M505.101,101.8L451,144.099V271c0,8.399-6.599,15-15,15V30c8.401,0,15,6.599,15,15v63.1  l45.399-37.202C499.701,81.099,502.7,91.599,505.101,101.8z" data-original="#8B4330"/><path style="fill:#81C8EE;" d="M114.774,213.827c-3.94-2.827-8.979-3.633-13.521-2.051l-91,30C4.131,243.813,0,249.54,0,256v45  l30,15L0,331v30l30,15L0,391v75c0,8.291,6.709,15,15,15h91c8.291,0,15-6.709,15-15V226C121,221.181,118.686,216.654,114.774,213.827  z" data-original="#81C8EE"/><g>
	<path style="fill:#15B7BE;" d="M61,376c0-8.291-6.709-15-15-15H0v30h46C54.291,391,61,384.291,61,376z" data-original="#15B7BE"/>
	<path style="fill:#15B7BE;" d="M61,316c0-8.291-6.709-15-15-15H0v30h46C54.291,331,61,324.291,61,316z" data-original="#15B7BE"/>
</g><path style="fill:#CAE8F9;" d="M326.499,155.499l-120-120C203.8,32.5,199.9,31,196,31s-7.8,1.5-10.499,4.499l-120,120  C62.5,158.2,61,162.1,61,166s1.5,7.8,4.501,10.499c5.7,6,15.298,6,20.999,0l4.501-4.2V466c0,8.399,6.599,15,15,15h180  c8.401,0,15-6.601,15-15V172.299l4.501,4.2c5.7,6,15.298,6,20.999,0C329.5,173.8,331,169.9,331,166S329.5,158.2,326.499,155.499z" data-original="#CAE8F9"/><path style="fill:#A4D9F5;" d="M331,166c0,3.9-1.5,7.8-4.501,10.499c-5.7,6-15.298,6-20.999,0l-4.501-4.2V466  c0,8.399-6.599,15-15,15h-90V31c3.9,0,7.8,1.5,10.499,4.499l120,120C329.5,158.2,331,162.1,331,166z" data-original="#A4D9F5"/><path style="fill:#8B4330;" d="M196,331c-24.901,0-45,20.099-45,45v90c0,8.399,6.599,15,15,15h60c8.401,0,15-6.601,15-15v-90  C241,351.099,220.901,331,196,331z" data-original="#8B4330"/><path style="fill:#1BD9DE;" d="M196,151c-24.901,0-45,20.099-45,45c0,24.899,20.099,45,45,45s45-20.101,45-45  C241,171.099,220.901,151,196,151z" data-original="#1BD9DE" class=""/><path style="fill:#15B7BE;" d="M196,241v-90c24.901,0,45,20.099,45,45C241,220.899,220.901,241,196,241z" data-original="#15B7BE"/><path style="fill:#763220;" d="M241,376v90c0,8.399-6.599,15-15,15h-30V331C220.901,331,241,351.099,241,376z" data-original="#763220"/><path style="fill:#CAE8F9;" d="M506,303.999l-121-90c-2.699-1.8-6-2.999-9-2.999s-6.301,1.199-9,2.999l-120,90  c-5.099,3.9-7.2,10.501-5.099,16.8c1.8,6,7.5,10.201,14.099,10.201h15v135c0,8.399,6.599,15,15,15h180c8.401,0,15-6.601,15-15V331  h16c6.599,0,12.299-4.2,14.099-10.201C513.199,314.5,511.099,307.899,506,303.999z" data-original="#CAE8F9"/><path style="fill:#B7E0F6;" d="M511.099,320.799c-1.8,6-7.5,10.201-14.099,10.201h-16v135c0,8.399-6.599,15-15,15h-90V211  c2.999,0,6.301,1.199,9,2.999l121,90C511.099,307.899,513.199,314.5,511.099,320.799z" data-original="#B7E0F6" class=""/><path style="fill:#8B4330;" d="M406,331h-60c-8.401,0-15,6.599-15,15v120c0,8.399,6.599,15,15,15h60c8.401,0,15-6.601,15-15V346  C421,337.599,414.401,331,406,331z" data-original="#8B4330"/><path style="fill:#763220;" d="M421,346v120c0,8.399-6.599,15-15,15h-30V331h30C414.401,331,421,337.599,421,346z" data-original="#763220"/><path style="fill:#0075F9" d="M512,451v46c0,8.401-6.599,15-15,15H15c-8.401,0-15-6.599-15-15v-46H512z" data-original="#787780" class="" data-old_color="#787780"/><path style="fill:#0075FB" d="M512,451v46c0,8.401-6.599,15-15,15H256v-61H512z" data-original="#57555C" class="" data-old_color="#57555C"/></g> </svg>
